<?xml version="1.0" standalone="no"?>
<!DOCTYPE svg PUBLIC "-//W3C//DTD SVG 20010904//EN"
 "http://www.w3.org/TR/2001/REC-SVG-20010904/DTD/svg10.dtd">
<svg version="1.0" xmlns="http://www.w3.org/2000/svg"
 width="700.000000pt" height="393.000000pt" viewBox="0 0 700.000000 393.000000"
 preserveAspectRatio="xMidYMid meet">
<metadata>
Created by potrace 1.16, written by Peter Selinger 2001-2019
</metadata>
<g transform="translate(0.000000,393.000000) scale(0.100000,-0.100000)"
fill="#000000" stroke="none">
<path d="M3900 3305 c-21 -60 -17 -178 8 -260 24 -81 97 -203 172 -290 42 -48
38 -45 -22 16 -40 42 -92 107 -114 145 -45 75 -94 205 -95 251 0 15 -4 37 -8
47 -7 19 -8 19 -15 0 -4 -10 -10 -50 -13 -89 -10 -131 36 -257 138 -383 27
-34 46 -62 40 -62 -11 0 -75 76 -118 140 -39 58 -80 151 -89 198 -14 80 -25
66 -21 -28 6 -151 68 -281 192 -404 59 -59 60 -59 15 -29 -96 65 -188 189
-226 305 l-24 73 3 -96 c2 -80 7 -104 31 -152 42 -87 142 -187 262 -264 16
-10 14 -10 -12 -2 -37 12 -147 99 -195 154 -45 51 -61 78 -94 151 l-26 59 4
-70 c7 -108 37 -174 117 -255 38 -39 65 -70 59 -70 -17 0 -145 134 -162 170
-22 45 -23 14 -2 -56 24 -82 121 -183 238 -250 62 -35 35 -29 -37 8 -72 38
-190 151 -212 203 -20 49 -27 39 -14 -20 23 -102 86 -178 210 -252 83 -49 58
-49 -30 0 -56 32 -148 116 -168 152 -22 42 -20 7 3 -43 49 -105 118 -169 269
-250 105 -55 58 -44 -62 15 -71 35 -105 59 -147 105 -58 62 -67 60 -36 -8 41
-90 129 -162 266 -218 50 -20 74 -34 55 -30 -49 9 -187 76 -233 112 -21 17
-52 48 -69 69 -25 32 -29 34 -23 13 16 -52 40 -87 102 -148 36 -35 54 -58 41
-52 -12 7 -44 33 -70 58 -27 26 -48 42 -48 36 0 -12 50 -91 76 -120 30 -33
105 -79 159 -99 59 -22 84 -41 40 -31 -38 9 -166 69 -185 87 -8 8 -24 21 -34
29 -19 15 -19 15 0 -18 38 -67 165 -151 252 -168 17 -3 32 -11 32 -16 0 -13
-84 0 -148 24 -29 11 -55 18 -58 15 -2 -2 20 -21 49 -41 56 -39 158 -76 207
-76 16 0 32 -5 36 -11 8 -14 -100 -4 -143 12 -44 16 -37 2 13 -27 54 -32 130
-54 189 -55 37 0 38 -1 15 -10 -14 -6 -42 -8 -62 -6 -60 8 -44 -9 22 -23 35
-7 88 -10 128 -7 l67 6 -45 -14 c-25 -8 -61 -18 -80 -23 -30 -9 -24 -10 46
-11 45 -1 102 5 129 14 27 8 51 13 52 11 2 -2 -19 -14 -47 -28 -27 -14 -47
-27 -45 -30 8 -8 87 9 130 26 20 9 35 12 33 8 -56 -118 -68 -148 -64 -157 4
-12 -45 -117 -68 -145 -7 -8 -25 -36 -39 -62 -15 -26 -32 -50 -38 -54 -6 -3
-33 15 -59 41 l-48 48 -27 -22 -28 -21 -27 43 c-33 51 -95 118 -134 143 -28
18 -29 18 -23 -1 3 -11 9 -37 12 -57 l7 -37 -38 4 c-36 4 -36 4 -8 -4 17 -4
37 -11 44 -16 10 -6 12 2 6 43 -4 29 -3 52 2 52 21 0 142 -145 142 -170 0 -7
-19 -29 -42 -49 l-41 -37 22 -30 c12 -16 22 -46 23 -67 1 -22 6 -36 12 -34 6
2 23 -9 38 -26 19 -21 38 -31 60 -31 22 -1 61 -20 113 -54 44 -29 117 -71 163
-93 45 -23 82 -44 82 -47 -1 -4 -9 -25 -20 -47 -23 -48 -25 -65 -6 -65 23 0
80 22 110 43 l29 20 -5 -61 c-5 -77 5 -79 72 -16 l48 45 -4 -43 c-3 -24 -7
-51 -9 -60 -5 -29 10 -21 70 34 l57 51 -3 -54 c-1 -30 1 -55 4 -57 15 -6 67
30 93 63 l26 35 52 -55 c55 -59 79 -69 76 -32 -1 12 -2 40 -1 62 l1 40 33 -37
c17 -20 47 -44 65 -53 l33 -16 -7 51 c-4 27 -4 50 0 50 4 0 17 -11 29 -25 12
-14 40 -32 62 -40 48 -16 54 -6 31 50 -23 55 -20 58 24 29 25 -17 59 -29 90
-32 l50 -5 -25 54 c-14 30 -25 59 -25 65 0 5 30 25 68 43 37 17 94 49 127 71
44 28 71 39 101 39 36 1 46 7 80 47 26 30 45 44 56 40 14 -3 18 2 18 20 0 14
7 41 16 62 l15 37 -35 31 c-20 17 -36 35 -36 41 0 36 75 139 134 184 18 13 19
12 12 -39 -7 -53 -6 -53 16 -46 69 22 120 25 137 9 3 -4 -3 -11 -14 -18 -55
-31 -118 -105 -156 -183 -21 -46 -44 -86 -49 -89 -6 -3 -10 -11 -10 -16 0 -25
25 9 55 75 40 88 98 159 167 205 l53 35 -43 8 c-24 4 -66 3 -94 -2 -28 -6 -52
-9 -54 -8 -1 2 2 25 7 52 5 27 7 51 5 53 -9 10 -121 -107 -148 -154 -16 -29
-33 -53 -36 -53 -3 0 -19 12 -34 27 l-28 27 -53 -52 c-29 -29 -58 -52 -64 -52
-18 0 -125 207 -130 254 -3 22 -11 55 -18 71 -8 17 -14 34 -13 38 0 4 -8 20
-18 35 -16 24 -28 72 -18 72 3 0 21 -8 42 -19 38 -19 150 -46 158 -38 3 2 -21
17 -51 32 -65 31 -68 42 -5 20 26 -9 75 -15 129 -14 l86 1 -74 19 c-41 10 -76
21 -78 23 -3 2 23 2 56 -1 58 -5 177 12 186 27 2 3 -20 5 -49 2 -74 -6 -80 14
-6 21 69 8 147 36 187 67 21 17 23 21 8 17 -52 -16 -114 -27 -149 -27 -56 0
-40 9 35 21 71 10 194 66 225 100 19 22 19 22 -1 14 -11 -4 -49 -16 -85 -26
-116 -32 -151 -20 -40 14 86 26 189 100 221 160 14 24 2 21 -40 -12 -41 -32
-99 -63 -154 -80 -66 -22 -63 -6 4 19 101 37 183 101 220 172 28 55 24 57 -23
11 -24 -22 -59 -48 -78 -58 l-35 -16 35 27 c62 50 110 104 136 157 l27 52 -50
-49 c-56 -54 -129 -106 -150 -106 -7 0 -13 -5 -13 -10 0 -6 -3 -9 -7 -8 -9 1
-36 -8 -70 -24 -11 -6 -27 -8 -35 -6 -7 3 13 15 45 27 82 30 115 48 165 89 49
39 108 122 118 167 6 29 5 29 -37 -17 -63 -67 -126 -111 -214 -147 -42 -18
-79 -31 -81 -28 -2 2 35 23 82 46 104 53 211 148 248 224 30 59 35 96 8 57
-37 -54 -105 -112 -174 -150 -102 -55 -108 -50 -11 10 130 80 204 181 202 274
0 31 -1 30 -20 -12 -25 -57 -121 -152 -190 -188 -75 -40 -82 -41 -24 -3 87 56
179 157 203 222 12 32 22 70 22 85 0 24 -2 23 -19 -14 -18 -39 -74 -103 -133
-151 -47 -39 -31 -12 28 46 76 73 114 157 120 260 4 63 2 72 -7 51 -66 -144
-75 -158 -150 -232 -42 -42 -100 -88 -128 -102 -73 -38 -73 -32 0 15 91 59
180 154 220 234 29 59 33 79 36 159 2 90 2 91 -12 48 -33 -100 -86 -191 -147
-254 -96 -98 -149 -130 -63 -37 79 85 129 164 156 245 23 69 34 162 24 211
l-8 38 -13 -65 c-23 -110 -103 -251 -185 -325 l-33 -30 36 45 c68 88 100 141
124 213 33 96 40 164 24 237 -13 63 -30 80 -30 32 0 -54 -40 -185 -77 -251
-42 -77 -107 -163 -154 -206 -21 -20 -14 -7 23 40 111 140 168 272 170 394 1
78 -15 151 -33 151 -5 0 -9 -15 -9 -32 -1 -94 -64 -266 -139 -376 -54 -80
-235 -242 -270 -242 -5 0 -31 -10 -58 -21 -26 -12 -64 -23 -83 -25 -94 -6
-208 -76 -251 -154 -13 -22 -25 -40 -28 -41 -3 0 -14 -2 -23 -4 -9 -2 -22 3
-29 11 -7 9 -8 14 -1 14 6 0 13 -6 15 -12 4 -8 6 -7 6 4 1 9 -3 18 -8 20 -5 2
-11 19 -12 38 -3 25 -11 40 -32 53 -31 19 -28 36 6 38 15 1 17 3 6 6 -9 2 -22
15 -30 29 -11 21 -11 27 0 33 10 6 9 10 -3 14 -9 4 -16 15 -16 26 0 15 5 19
18 14 16 -6 16 -5 -1 14 -9 11 -31 65 -48 119 -18 59 -39 106 -51 117 -16 13
-18 21 -10 29 15 15 16 42 2 33 -7 -4 -8 3 -4 22 7 26 6 27 -11 13 -17 -14
-18 -14 -6 8 l12 23 -43 -22 c-38 -20 -59 -23 -172 -23 l-128 -1 -27 -32 c-16
-19 -37 -33 -49 -33 -20 0 -26 -9 -23 -35 0 -5 -16 -19 -36 -30 -47 -25 -78
-76 -68 -112 l6 -26 15 22 c27 37 68 52 144 49 73 -3 87 -12 44 -28 -14 -6
-23 -14 -19 -19 7 -13 -30 -24 -79 -24 -35 0 -38 -1 -21 -13 22 -16 94 -28
135 -22 35 5 40 -10 11 -36 -11 -10 -17 -23 -15 -30 3 -7 -2 -19 -11 -26 -19
-16 -20 -34 0 -26 9 3 15 0 15 -9 0 -8 -11 -17 -25 -21 -30 -7 -33 -24 -5 -24
28 0 25 -18 -5 -32 -22 -10 -31 -32 -26 -62 3 -13 -30 -46 -45 -46 -7 0 -25
20 -39 45 -26 44 -76 89 -125 113 -50 24 -139 49 -143 39 -1 -5 -25 2 -52 15
-28 14 -66 30 -86 37 -19 6 -53 29 -74 51 -22 22 -45 40 -51 40 -15 0 -84 78
-135 151 -71 105 -97 175 -138 379 l-7 35 -14 -40z m1628 -1243 l-3 -237 -130
0 -130 0 -3 38 c-4 42 -8 40 94 37 42 -1 75 3 78 9 4 7 1 9 -8 5 -8 -3 -24 3
-36 14 -17 15 -21 29 -18 63 3 48 19 60 36 27 l11 -23 0 23 c1 23 20 32 22 10
0 -7 4 -4 9 7 8 18 9 18 9 2 1 -10 6 -15 11 -12 6 3 10 34 10 68 0 59 -2 65
-39 104 -60 64 -136 79 -206 42 -44 -24 -77 -61 -86 -98 -4 -15 -7 -30 -9 -36
-1 -5 -2 -26 -1 -45 2 -30 4 -32 14 -18 10 15 12 15 24 0 11 -16 12 -16 13 1
0 18 30 25 30 6 0 -8 5 -8 15 1 13 11 15 7 16 -26 0 -37 1 -38 12 -14 l11 25
4 -28 c6 -50 2 -52 -99 -47 l-94 5 -3 167 -2 167 132 3 c73 2 175 2 226 0 l92
-3 -2 -237z m-430 -274 c11 19 21 22 70 21 53 -1 55 -1 27 -11 -16 -6 -46 -17
-65 -25 -32 -14 -33 -16 -14 -23 20 -8 61 -97 50 -107 -2 -3 -22 21 -45 53
-35 49 -41 54 -41 32 0 -17 -13 -35 -40 -57 -47 -38 -50 -31 -10 23 34 45 38
60 12 52 -12 -4 -36 7 -68 29 -57 41 -56 42 21 15 62 -21 76 -20 56 4 -10 12
-9 26 6 68 l18 53 5 -75 c4 -67 6 -73 18 -52z m-198 -70 c1 -133 33 -191 139
-254 l31 -18 0 -152 0 -152 -122 70 c-271 156 -317 228 -318 491 l0 107 135 0
135 0 0 -92z m525 -28 c3 -6 17 -7 29 -4 23 5 43 -17 31 -36 -3 -4 1 -10 9
-13 11 -4 11 -14 2 -51 -7 -25 -15 -48 -19 -52 -4 -4 -7 -16 -7 -26 0 -10 -7
-21 -15 -24 -8 -4 -13 -10 -10 -14 2 -4 -7 -20 -20 -34 -14 -15 -25 -31 -25
-37 0 -5 -6 -9 -14 -9 -7 0 -16 -9 -19 -20 -3 -13 -14 -20 -28 -20 -12 0 -19
-3 -16 -7 11 -10 -13 -32 -28 -27 -8 3 -22 1 -32 -4 -20 -12 -57 3 -48 19 4 5
-1 9 -9 9 -9 0 -16 3 -17 8 -7 44 -5 75 6 85 6 6 10 19 8 27 -3 9 2 22 11 29
8 7 12 19 10 26 -3 7 4 18 15 25 12 6 21 17 21 26 0 8 7 17 15 20 8 4 15 13
15 20 0 8 11 19 24 23 13 5 26 17 29 25 4 9 13 16 20 16 8 0 20 7 27 15 14 17
26 19 35 5z m-601 -464 c-2 -33 -128 -421 -143 -438 -10 -11 -135 57 -146 80
-6 11 -23 38 -39 60 -24 35 -26 43 -15 64 22 41 152 169 160 157 4 -8 13 -3
24 14 9 14 22 24 29 21 7 -3 19 2 26 11 7 8 17 15 22 15 6 0 23 14 39 31 34
37 45 33 43 -15z m572 -31 c27 -24 51 -40 53 -34 2 6 10 1 18 -10 8 -12 20
-21 27 -21 13 0 105 -100 144 -157 l23 -34 -35 -41 c-20 -23 -36 -47 -36 -54
0 -15 -54 -50 -90 -59 -25 -6 -27 -2 -82 147 -87 236 -92 251 -84 281 3 15 8
27 10 27 2 0 26 -20 52 -45z m-1083 -182 c18 -20 17 -21 -68 -63 -90 -44 -101
-44 -125 1 -8 14 3 27 61 72 l71 54 22 -22 c11 -12 29 -31 39 -42z m1677 -47
l34 -36 -34 -35 -35 -35 -75 45 c-41 25 -79 46 -85 49 -5 2 13 25 40 53 l50
49 35 -27 c19 -15 51 -43 70 -63z m-1494 -102 c115 -74 272 -135 409 -160 104
-18 282 -18 383 1 92 18 246 78 333 131 l61 36 28 -21 c16 -11 54 -32 84 -45
31 -14 56 -29 56 -33 0 -4 -22 -22 -48 -40 -203 -135 -372 -198 -598 -223
-265 -28 -579 52 -814 209 -120 81 -126 86 -111 105 7 9 19 16 25 16 6 0 38
13 71 29 33 16 61 30 62 30 2 1 28 -15 59 -35z"/>
<path d="M5406 1653 c-11 -3 -26 -11 -34 -19 -7 -8 -18 -12 -23 -9 -5 4 -9 -1
-9 -10 0 -9 -9 -19 -19 -22 -11 -3 -22 -12 -25 -21 -13 -35 -38 -72 -48 -72
-5 0 -8 -6 -5 -14 3 -7 -1 -23 -9 -34 -16 -23 -22 -87 -10 -100 11 -10 77 -11
70 -1 -3 5 1 9 8 9 7 0 19 9 26 20 7 12 17 18 22 15 6 -3 10 1 10 9 0 8 8 21
18 28 19 15 37 41 52 76 5 12 14 22 19 22 6 0 8 7 5 15 -3 8 -2 20 3 27 11 18
12 61 0 76 -10 12 -18 13 -51 5z"/>
<path d="M882 2387 c-23 -27 -23 -64 -2 -109 l21 -46 -20 -33 c-26 -43 -28
-79 -3 -79 32 0 63 43 60 84 -2 31 5 43 47 88 51 53 37 49 -23 -6 -39 -36 -53
-27 -54 33 -1 52 12 67 41 52 25 -14 28 -3 4 15 -23 17 -58 18 -71 1z"/>
<path d="M428 1888 c2 -109 0 -174 -7 -182 -9 -10 0 -13 42 -15 l52 -1 0 172
c0 169 1 173 21 176 12 2 34 -7 49 -20 47 -41 31 -125 -28 -144 -28 -9 -2 -24
41 -24 52 0 92 45 92 103 0 38 -5 49 -31 71 -17 14 -38 26 -47 27 -9 0 -55 2
-102 3 l-85 3 3 -169z"/>
<path d="M1080 1892 c0 -94 -3 -177 -6 -186 -5 -13 2 -16 45 -16 46 0 65 10
43 24 -6 4 -9 145 -3 204 0 8 58 -41 129 -107 l127 -121 3 172 c2 135 5 175
16 184 11 7 -3 10 -50 10 -58 0 -62 -1 -49 -16 11 -12 15 -43 15 -119 0 -60
-4 -101 -9 -99 -6 2 -66 56 -135 121 l-126 119 0 -170z"/>
<path d="M1590 2044 c-71 -31 -110 -92 -110 -174 0 -118 87 -187 226 -178 89
6 118 28 121 94 l3 49 -14 -39 c-8 -22 -23 -48 -34 -58 -41 -42 -138 -41 -176
1 -46 51 -58 158 -27 228 43 94 178 103 226 14 l14 -26 1 38 c0 34 -4 40 -35
53 -44 18 -150 17 -195 -2z"/>
<path d="M2290 2043 c-35 -24 -40 -33 -40 -75 0 -56 6 -64 96 -123 66 -43 84
-60 84 -78 0 -58 -97 -82 -145 -37 -14 13 -25 32 -25 42 0 11 -4 16 -10 13 -5
-3 -10 -21 -10 -40 0 -30 4 -35 36 -45 20 -7 63 -10 97 -8 76 6 107 35 107
102 0 52 -7 61 -97 119 -39 26 -74 56 -78 67 -17 52 77 83 122 41 21 -20 21
-20 26 4 2 14 2 27 -1 30 -3 3 -35 5 -71 5 -46 0 -74 -5 -91 -17z"/>
<path d="M2546 2043 c11 -11 14 -47 14 -164 0 -85 -5 -159 -10 -170 -10 -18
-7 -19 45 -19 52 0 55 1 45 19 -13 26 -13 318 0 326 22 14 7 20 -49 21 -52 1
-58 0 -45 -13z"/>
<path d="M2737 2041 c13 -26 16 -321 3 -336 -9 -10 12 -13 109 -14 66 -1 121
2 124 6 3 4 8 24 11 43 5 28 5 31 -4 17 -17 -27 -65 -47 -115 -47 l-45 0 0
159 c0 123 3 163 14 174 12 11 5 13 -45 13 -51 0 -58 -2 -52 -15z"/>
<path d="M3170 2051 c0 -5 -15 -42 -34 -83 -19 -40 -51 -112 -71 -161 -21 -48
-41 -90 -46 -93 -20 -12 -7 -24 26 -22 26 1 32 5 24 15 -8 9 -6 23 8 50 18 37
19 38 77 39 57 1 58 1 73 -34 8 -19 12 -43 10 -54 -5 -16 1 -18 55 -18 33 0
58 3 56 8 -2 4 -21 43 -42 87 -20 44 -55 117 -77 162 -21 46 -39 87 -39 92 0
5 -4 13 -10 16 -5 3 -10 2 -10 -4z"/>
<path d="M832 2030 c-31 -80 -136 -308 -149 -322 -15 -17 -14 -18 19 -18 32 0
35 3 35 29 0 16 7 41 17 55 14 22 24 26 64 26 26 0 52 -4 58 -8 17 -11 34 -48
34 -75 0 -24 3 -25 60 -25 55 1 59 2 47 17 -12 14 -86 167 -130 271 -8 19 -22
44 -30 55 -15 20 -16 20 -25 -5z"/>
<path d="M1991 1967 c-19 -45 -55 -126 -81 -179 l-46 -98 32 0 c26 0 31 3 27
18 -2 11 2 34 10 53 14 33 16 34 76 37 59 2 62 1 72 -25 6 -16 12 -40 13 -55
1 -27 3 -28 59 -28 31 0 57 4 57 10 0 6 -4 10 -9 10 -4 0 -32 53 -61 118 -74
164 -102 222 -109 222 -3 0 -21 -37 -40 -83z"/>
<path d="M1754 1567 c-7 -18 -115 -21 -126 -3 -5 8 -12 8 -25 0 -12 -7 -105
-10 -266 -8 -137 1 -250 -2 -253 -7 -3 -5 -49 -7 -102 -5 -53 2 -82 2 -64 0
59 -9 33 -22 -46 -23 -113 -1 -220 -24 -237 -50 -11 -18 57 -13 77 6 14 13 21
14 30 5 7 -7 30 -12 53 -13 22 0 49 -4 60 -9 18 -8 17 -9 -7 -9 -16 -1 -28 -5
-28 -10 0 -5 -26 -15 -57 -21 -102 -21 -94 -29 32 -30 77 -1 113 -5 100 -10
-11 -5 -42 -9 -70 -9 -61 -1 -99 -20 -45 -22 24 -1 28 -3 13 -6 -45 -9 -22
-21 50 -27 146 -12 252 -15 262 -7 14 11 135 20 165 12 42 -11 6 -22 -75 -23
-42 -1 -72 -5 -68 -10 6 -11 236 -4 418 12 77 7 188 10 270 6 129 -5 144 -4
180 15 29 14 51 18 80 14 82 -11 167 -16 430 -22 464 -11 544 -10 555 7 12 20
-6 38 -22 22 -16 -16 -51 -15 -120 4 -50 14 -57 19 -46 31 8 7 43 19 79 25 69
13 69 13 -36 28 l-70 9 82 -4 c97 -5 120 0 98 21 -7 8 -24 14 -37 14 -18 0
-20 2 -8 10 13 9 13 10 0 11 -31 2 -68 7 -170 24 -58 9 -130 19 -160 22 -30 3
-59 8 -65 12 -19 14 -45 20 -45 11 0 -6 10 -10 23 -11 l22 0 -23 -9 c-24 -10
-138 -7 -149 4 -3 3 19 6 50 6 35 0 57 4 57 11 0 8 -89 10 -307 9 -170 -2
-341 1 -380 5 -61 7 -73 5 -79 -8z"/>
</g>
</svg>
